<?xml version="1.0" encoding="UTF-8" standalone="no"?>
<!DOCTYPE svg PUBLIC "-//W3C//DTD SVG 1.1//EN"
 "http://www.w3.org/Graphics/SVG/1.1/DTD/svg11.dtd">
<!-- Generated by graphviz version 2.47.3 (20210619.1520)
 -->
<!-- Title: dependencies Pages: 1 -->
<svg width="466pt" height="247pt"
 viewBox="0.00 0.00 466.00 246.80" xmlns="http://www.w3.org/2000/svg" xmlns:xlink="http://www.w3.org/1999/xlink">
<g id="graph0" class="graph" transform="scale(1 1) rotate(0) translate(4 242.8)">
<title>dependencies</title>
<polygon fill="white" stroke="transparent" points="-4,4 -4,-242.8 462,-242.8 462,4 -4,4"/>
<text text-anchor="middle" x="229" y="-8.2" font-family="sans-serif" font-size="14.00">dependencies</text>
<g id="clust1" class="cluster">
<title>cluster_TweetsModule</title>
<polygon fill="none" stroke="black" stroke-dasharray="1,5" points="8,-32.8 8,-230.8 450,-230.8 450,-32.8 8,-32.8"/>
</g>
<g id="clust3" class="cluster">
<title>cluster_TweetsModule_imports</title>
<polygon fill="none" stroke="black" points="328,-40.8 328,-92.8 442,-92.8 442,-40.8 328,-40.8"/>
</g>
<g id="clust4" class="cluster">
<title>cluster_TweetsModule_exports</title>
<polygon fill="none" stroke="black" points="186,-170.8 186,-222.8 304,-222.8 304,-170.8 186,-170.8"/>
</g>
<g id="clust6" class="cluster">
<title>cluster_TweetsModule_providers</title>
<polygon fill="none" stroke="black" points="16,-40.8 16,-92.8 320,-92.8 320,-40.8 16,-40.8"/>
</g>
<!-- PrismaModule -->
<g id="node1" class="node">
<title>PrismaModule</title>
<polygon fill="#8dd3c7" stroke="black" points="434.43,-84.8 431.43,-88.8 410.43,-88.8 407.43,-84.8 335.57,-84.8 335.57,-48.8 434.43,-48.8 434.43,-84.8"/>
<text text-anchor="middle" x="385" y="-62.6" font-family="Times,serif" font-size="14.00">PrismaModule</text>
</g>
<!-- TweetsModule -->
<g id="node2" class="node">
<title>TweetsModule</title>
<polygon fill="#8dd3c7" stroke="black" points="294.97,-149.8 291.97,-153.8 270.97,-153.8 267.97,-149.8 195.03,-149.8 195.03,-113.8 294.97,-113.8 294.97,-149.8"/>
<text text-anchor="middle" x="245" y="-127.6" font-family="Times,serif" font-size="14.00">TweetsModule</text>
</g>
<!-- PrismaModule&#45;&gt;TweetsModule -->
<g id="edge1" class="edge">
<title>PrismaModule&#45;&gt;TweetsModule</title>
<path fill="none" stroke="black" d="M385,-84.91C385,-104.14 385,-131.8 385,-131.8 385,-131.8 305.15,-131.8 305.15,-131.8"/>
<polygon fill="black" stroke="black" points="305.15,-128.3 295.15,-131.8 305.15,-135.3 305.15,-128.3"/>
</g>
<!-- TweetsService  -->
<g id="node3" class="node">
<title>TweetsService </title>
<polygon fill="#fb8072" stroke="black" points="295.9,-214.8 194.1,-214.8 194.1,-178.8 295.9,-178.8 295.9,-214.8"/>
<text text-anchor="middle" x="245" y="-192.6" font-family="Times,serif" font-size="14.00">TweetsService </text>
</g>
<!-- TweetsModule&#45;&gt;TweetsService  -->
<g id="edge2" class="edge">
<title>TweetsModule&#45;&gt;TweetsService </title>
<path fill="none" stroke="black" stroke-dasharray="5,2" d="M245,-149.91C245,-149.91 245,-168.79 245,-168.79"/>
<polygon fill="black" stroke="black" points="241.5,-168.79 245,-178.79 248.5,-168.79 241.5,-168.79"/>
</g>
<!-- PrismaService -->
<g id="node4" class="node">
<title>PrismaService</title>
<ellipse fill="#fdb462" stroke="black" cx="245" cy="-66.8" rx="66.63" ry="18"/>
<text text-anchor="middle" x="245" y="-62.6" font-family="Times,serif" font-size="14.00">PrismaService</text>
</g>
<!-- PrismaService&#45;&gt;TweetsModule -->
<g id="edge3" class="edge">
<title>PrismaService&#45;&gt;TweetsModule</title>
<path fill="none" stroke="black" d="M245,-84.91C245,-84.91 245,-103.79 245,-103.79"/>
<polygon fill="black" stroke="black" points="241.5,-103.79 245,-113.79 248.5,-103.79 241.5,-103.79"/>
</g>
<!-- TweetsService -->
<g id="node5" class="node">
<title>TweetsService</title>
<ellipse fill="#fdb462" stroke="black" cx="92" cy="-66.8" rx="67.75" ry="18"/>
<text text-anchor="middle" x="92" y="-62.6" font-family="Times,serif" font-size="14.00">TweetsService</text>
</g>
<!-- TweetsService&#45;&gt;TweetsModule -->
<g id="edge4" class="edge">
<title>TweetsService&#45;&gt;TweetsModule</title>
<path fill="none" stroke="black" d="M92,-84.91C92,-104.14 92,-131.8 92,-131.8 92,-131.8 184.9,-131.8 184.9,-131.8"/>
<polygon fill="black" stroke="black" points="184.9,-135.3 194.9,-131.8 184.9,-128.3 184.9,-135.3"/>
</g>
</g>
</svg>
