<?xml version="1.0" encoding="UTF-8" standalone="no"?>
<!DOCTYPE svg PUBLIC "-//W3C//DTD SVG 1.1//EN"
 "http://www.w3.org/Graphics/SVG/1.1/DTD/svg11.dtd">
<!-- Generated by graphviz version 2.47.3 (20210619.1520)
 -->
<!-- Title: dependencies Pages: 1 -->
<svg width="757pt" height="174pt"
 viewBox="0.00 0.00 757.00 173.80" xmlns="http://www.w3.org/2000/svg" xmlns:xlink="http://www.w3.org/1999/xlink">
<g id="graph0" class="graph" transform="scale(1 1) rotate(0) translate(4 169.8)">
<title>dependencies</title>
<polygon fill="white" stroke="transparent" points="-4,4 -4,-169.8 753,-169.8 753,4 -4,4"/>
<text text-anchor="middle" x="374.5" y="-8.2" font-family="sans-serif" font-size="14.00">dependencies</text>
<g id="clust1" class="cluster">
<title>cluster_AuthModule</title>
<polygon fill="none" stroke="black" stroke-dasharray="1,5" points="8,-32.8 8,-157.8 741,-157.8 741,-32.8 8,-32.8"/>
</g>
<g id="clust6" class="cluster">
<title>cluster_AuthModule_providers</title>
<polygon fill="none" stroke="black" points="150,-40.8 150,-92.8 733,-92.8 733,-40.8 150,-40.8"/>
</g>
<g id="clust3" class="cluster">
<title>cluster_AuthModule_imports</title>
<polygon fill="none" stroke="black" points="16,-40.8 16,-92.8 142,-92.8 142,-40.8 16,-40.8"/>
</g>
<!-- UsuariosModule -->
<g id="node1" class="node">
<title>UsuariosModule</title>
<polygon fill="#8dd3c7" stroke="black" points="133.81,-84.8 130.81,-88.8 109.81,-88.8 106.81,-84.8 24.19,-84.8 24.19,-48.8 133.81,-48.8 133.81,-84.8"/>
<text text-anchor="middle" x="79" y="-62.6" font-family="Times,serif" font-size="14.00">UsuariosModule</text>
</g>
<!-- AuthModule -->
<g id="node2" class="node">
<title>AuthModule</title>
<polygon fill="#8dd3c7" stroke="black" points="434.55,-149.8 431.55,-153.8 410.55,-153.8 407.55,-149.8 347.45,-149.8 347.45,-113.8 434.55,-113.8 434.55,-149.8"/>
<text text-anchor="middle" x="391" y="-127.6" font-family="Times,serif" font-size="14.00">AuthModule</text>
</g>
<!-- UsuariosModule&#45;&gt;AuthModule -->
<g id="edge1" class="edge">
<title>UsuariosModule&#45;&gt;AuthModule</title>
<path fill="none" stroke="black" d="M79,-85.08C79,-106.12 79,-137.8 79,-137.8 79,-137.8 337.29,-137.8 337.29,-137.8"/>
<polygon fill="black" stroke="black" points="337.29,-141.3 347.29,-137.8 337.29,-134.3 337.29,-141.3"/>
</g>
<!-- AuthService -->
<g id="node3" class="node">
<title>AuthService</title>
<ellipse fill="#fdb462" stroke="black" cx="666" cy="-66.8" rx="59.11" ry="18"/>
<text text-anchor="middle" x="666" y="-62.6" font-family="Times,serif" font-size="14.00">AuthService</text>
</g>
<!-- AuthService&#45;&gt;AuthModule -->
<g id="edge2" class="edge">
<title>AuthService&#45;&gt;AuthModule</title>
<path fill="none" stroke="black" d="M666,-85.08C666,-106.12 666,-137.8 666,-137.8 666,-137.8 444.57,-137.8 444.57,-137.8"/>
<polygon fill="black" stroke="black" points="444.57,-134.3 434.57,-137.8 444.57,-141.3 444.57,-134.3"/>
</g>
<!-- JwtStrategy -->
<g id="node4" class="node">
<title>JwtStrategy</title>
<ellipse fill="#fdb462" stroke="black" cx="532" cy="-66.8" rx="56.76" ry="18"/>
<text text-anchor="middle" x="532" y="-62.6" font-family="Times,serif" font-size="14.00">JwtStrategy</text>
</g>
<!-- JwtStrategy&#45;&gt;AuthModule -->
<g id="edge3" class="edge">
<title>JwtStrategy&#45;&gt;AuthModule</title>
<path fill="none" stroke="black" d="M532,-84.82C532,-102.17 532,-125.8 532,-125.8 532,-125.8 444.84,-125.8 444.84,-125.8"/>
<polygon fill="black" stroke="black" points="444.84,-122.3 434.84,-125.8 444.84,-129.3 444.84,-122.3"/>
</g>
<!-- PrismaService -->
<g id="node5" class="node">
<title>PrismaService</title>
<ellipse fill="#fdb462" stroke="black" cx="391" cy="-66.8" rx="66.63" ry="18"/>
<text text-anchor="middle" x="391" y="-62.6" font-family="Times,serif" font-size="14.00">PrismaService</text>
</g>
<!-- PrismaService&#45;&gt;AuthModule -->
<g id="edge4" class="edge">
<title>PrismaService&#45;&gt;AuthModule</title>
<path fill="none" stroke="black" d="M391,-84.91C391,-84.91 391,-103.79 391,-103.79"/>
<polygon fill="black" stroke="black" points="387.5,-103.79 391,-113.79 394.5,-103.79 387.5,-103.79"/>
</g>
<!-- UsuariosService -->
<g id="node6" class="node">
<title>UsuariosService</title>
<ellipse fill="#fdb462" stroke="black" cx="232" cy="-66.8" rx="74.13" ry="18"/>
<text text-anchor="middle" x="232" y="-62.6" font-family="Times,serif" font-size="14.00">UsuariosService</text>
</g>
<!-- UsuariosService&#45;&gt;AuthModule -->
<g id="edge5" class="edge">
<title>UsuariosService&#45;&gt;AuthModule</title>
<path fill="none" stroke="black" d="M232,-84.82C232,-102.17 232,-125.8 232,-125.8 232,-125.8 337.13,-125.8 337.13,-125.8"/>
<polygon fill="black" stroke="black" points="337.13,-129.3 347.13,-125.8 337.13,-122.3 337.13,-129.3"/>
</g>
</g>
</svg>
