<?xml version="1.0" encoding="UTF-8" standalone="no"?>
<!DOCTYPE svg PUBLIC "-//W3C//DTD SVG 1.1//EN"
 "http://www.w3.org/Graphics/SVG/1.1/DTD/svg11.dtd">
<!-- Generated by graphviz version 2.47.3 (20210619.1520)
 -->
<!-- Title: dependencies Pages: 1 -->
<svg width="914pt" height="174pt"
 viewBox="0.00 0.00 914.00 173.80" xmlns="http://www.w3.org/2000/svg" xmlns:xlink="http://www.w3.org/1999/xlink">
<g id="graph0" class="graph" transform="scale(1 1) rotate(0) translate(4 169.8)">
<title>dependencies</title>
<polygon fill="white" stroke="transparent" points="-4,4 -4,-169.8 910,-169.8 910,4 -4,4"/>
<text text-anchor="middle" x="453" y="-8.2" font-family="sans-serif" font-size="14.00">dependencies</text>
<g id="clust1" class="cluster">
<title>cluster_AppModule</title>
<polygon fill="none" stroke="black" stroke-dasharray="1,5" points="8,-32.8 8,-157.8 898,-157.8 898,-32.8 8,-32.8"/>
</g>
<g id="clust3" class="cluster">
<title>cluster_AppModule_imports</title>
<polygon fill="none" stroke="black" points="154,-40.8 154,-92.8 890,-92.8 890,-40.8 154,-40.8"/>
</g>
<g id="clust6" class="cluster">
<title>cluster_AppModule_providers</title>
<polygon fill="none" stroke="black" points="16,-40.8 16,-92.8 146,-92.8 146,-40.8 16,-40.8"/>
</g>
<!-- AuthModule -->
<g id="node1" class="node">
<title>AuthModule</title>
<polygon fill="#8dd3c7" stroke="black" points="881.55,-84.8 878.55,-88.8 857.55,-88.8 854.55,-84.8 794.45,-84.8 794.45,-48.8 881.55,-48.8 881.55,-84.8"/>
<text text-anchor="middle" x="838" y="-62.6" font-family="Times,serif" font-size="14.00">AuthModule</text>
</g>
<!-- AppModule -->
<g id="node7" class="node">
<title>AppModule</title>
<polygon fill="#8dd3c7" stroke="black" points="505.66,-149.8 502.66,-153.8 481.66,-153.8 478.66,-149.8 422.34,-149.8 422.34,-113.8 505.66,-113.8 505.66,-149.8"/>
<text text-anchor="middle" x="464" y="-127.6" font-family="Times,serif" font-size="14.00">AppModule</text>
</g>
<!-- AuthModule&#45;&gt;AppModule -->
<g id="edge1" class="edge">
<title>AuthModule&#45;&gt;AppModule</title>
<path fill="none" stroke="black" d="M838,-85.09C838,-107.01 838,-140.8 838,-140.8 838,-140.8 515.81,-140.8 515.81,-140.8"/>
<polygon fill="black" stroke="black" points="515.81,-137.3 505.81,-140.8 515.81,-144.3 515.81,-137.3"/>
</g>
<!-- PrismaModule -->
<g id="node2" class="node">
<title>PrismaModule</title>
<polygon fill="#8dd3c7" stroke="black" points="776.43,-84.8 773.43,-88.8 752.43,-88.8 749.43,-84.8 677.57,-84.8 677.57,-48.8 776.43,-48.8 776.43,-84.8"/>
<text text-anchor="middle" x="727" y="-62.6" font-family="Times,serif" font-size="14.00">PrismaModule</text>
</g>
<!-- PrismaModule&#45;&gt;AppModule -->
<g id="edge2" class="edge">
<title>PrismaModule&#45;&gt;AppModule</title>
<path fill="none" stroke="black" d="M727,-84.91C727,-104.14 727,-131.8 727,-131.8 727,-131.8 515.67,-131.8 515.67,-131.8"/>
<polygon fill="black" stroke="black" points="515.67,-128.3 505.67,-131.8 515.67,-135.3 515.67,-128.3"/>
</g>
<!-- SeguidoresModule -->
<g id="node3" class="node">
<title>SeguidoresModule</title>
<polygon fill="#8dd3c7" stroke="black" points="659.76,-84.8 656.76,-88.8 635.76,-88.8 632.76,-84.8 538.24,-84.8 538.24,-48.8 659.76,-48.8 659.76,-84.8"/>
<text text-anchor="middle" x="599" y="-62.6" font-family="Times,serif" font-size="14.00">SeguidoresModule</text>
</g>
<!-- SeguidoresModule&#45;&gt;AppModule -->
<g id="edge3" class="edge">
<title>SeguidoresModule&#45;&gt;AppModule</title>
<path fill="none" stroke="black" d="M599,-84.83C599,-101.2 599,-122.8 599,-122.8 599,-122.8 515.97,-122.8 515.97,-122.8"/>
<polygon fill="black" stroke="black" points="515.97,-119.3 505.97,-122.8 515.97,-126.3 515.97,-119.3"/>
</g>
<!-- SeguindoModule -->
<g id="node4" class="node">
<title>SeguindoModule</title>
<polygon fill="#8dd3c7" stroke="black" points="520.44,-84.8 517.44,-88.8 496.44,-88.8 493.44,-84.8 407.56,-84.8 407.56,-48.8 520.44,-48.8 520.44,-84.8"/>
<text text-anchor="middle" x="464" y="-62.6" font-family="Times,serif" font-size="14.00">SeguindoModule</text>
</g>
<!-- SeguindoModule&#45;&gt;AppModule -->
<g id="edge4" class="edge">
<title>SeguindoModule&#45;&gt;AppModule</title>
<path fill="none" stroke="black" d="M464,-84.91C464,-84.91 464,-103.79 464,-103.79"/>
<polygon fill="black" stroke="black" points="460.5,-103.79 464,-113.79 467.5,-103.79 460.5,-103.79"/>
</g>
<!-- TweetsModule -->
<g id="node5" class="node">
<title>TweetsModule</title>
<polygon fill="#8dd3c7" stroke="black" points="389.97,-84.8 386.97,-88.8 365.97,-88.8 362.97,-84.8 290.03,-84.8 290.03,-48.8 389.97,-48.8 389.97,-84.8"/>
<text text-anchor="middle" x="340" y="-62.6" font-family="Times,serif" font-size="14.00">TweetsModule</text>
</g>
<!-- TweetsModule&#45;&gt;AppModule -->
<g id="edge5" class="edge">
<title>TweetsModule&#45;&gt;AppModule</title>
<path fill="none" stroke="black" d="M340,-84.83C340,-101.2 340,-122.8 340,-122.8 340,-122.8 412.02,-122.8 412.02,-122.8"/>
<polygon fill="black" stroke="black" points="412.02,-126.3 422.02,-122.8 412.02,-119.3 412.02,-126.3"/>
</g>
<!-- UsuariosModule -->
<g id="node6" class="node">
<title>UsuariosModule</title>
<polygon fill="#8dd3c7" stroke="black" points="271.81,-84.8 268.81,-88.8 247.81,-88.8 244.81,-84.8 162.19,-84.8 162.19,-48.8 271.81,-48.8 271.81,-84.8"/>
<text text-anchor="middle" x="217" y="-62.6" font-family="Times,serif" font-size="14.00">UsuariosModule</text>
</g>
<!-- UsuariosModule&#45;&gt;AppModule -->
<g id="edge6" class="edge">
<title>UsuariosModule&#45;&gt;AppModule</title>
<path fill="none" stroke="black" d="M217,-84.91C217,-104.14 217,-131.8 217,-131.8 217,-131.8 412.1,-131.8 412.1,-131.8"/>
<polygon fill="black" stroke="black" points="412.1,-135.3 422.1,-131.8 412.1,-128.3 412.1,-135.3"/>
</g>
<!-- AppService -->
<g id="node8" class="node">
<title>AppService</title>
<ellipse fill="#fdb462" stroke="black" cx="81" cy="-66.8" rx="56.74" ry="18"/>
<text text-anchor="middle" x="81" y="-62.6" font-family="Times,serif" font-size="14.00">AppService</text>
</g>
<!-- AppService&#45;&gt;AppModule -->
<g id="edge7" class="edge">
<title>AppService&#45;&gt;AppModule</title>
<path fill="none" stroke="black" d="M81,-85.09C81,-107.01 81,-140.8 81,-140.8 81,-140.8 412.28,-140.8 412.28,-140.8"/>
<polygon fill="black" stroke="black" points="412.28,-144.3 422.28,-140.8 412.28,-137.3 412.28,-144.3"/>
</g>
</g>
</svg>
