<?xml version="1.0" encoding="UTF-8" standalone="no"?>
<!DOCTYPE svg PUBLIC "-//W3C//DTD SVG 1.1//EN"
 "http://www.w3.org/Graphics/SVG/1.1/DTD/svg11.dtd">
<!-- Generated by graphviz version 2.47.3 (20210619.1520)
 -->
<!-- Title: dependencies Pages: 1 -->
<svg width="478pt" height="247pt"
 viewBox="0.00 0.00 478.00 246.80" xmlns="http://www.w3.org/2000/svg" xmlns:xlink="http://www.w3.org/1999/xlink">
<g id="graph0" class="graph" transform="scale(1 1) rotate(0) translate(4 242.8)">
<title>dependencies</title>
<polygon fill="white" stroke="transparent" points="-4,4 -4,-242.8 474,-242.8 474,4 -4,4"/>
<text text-anchor="middle" x="235" y="-8.2" font-family="sans-serif" font-size="14.00">dependencies</text>
<g id="clust1" class="cluster">
<title>cluster_UsuariosModule</title>
<polygon fill="none" stroke="black" stroke-dasharray="1,5" points="8,-32.8 8,-230.8 462,-230.8 462,-32.8 8,-32.8"/>
</g>
<g id="clust3" class="cluster">
<title>cluster_UsuariosModule_imports</title>
<polygon fill="none" stroke="black" points="340,-40.8 340,-92.8 454,-92.8 454,-40.8 340,-40.8"/>
</g>
<g id="clust4" class="cluster">
<title>cluster_UsuariosModule_exports</title>
<polygon fill="none" stroke="black" points="193,-170.8 193,-222.8 321,-222.8 321,-170.8 193,-170.8"/>
</g>
<g id="clust6" class="cluster">
<title>cluster_UsuariosModule_providers</title>
<polygon fill="none" stroke="black" points="16,-40.8 16,-92.8 332,-92.8 332,-40.8 16,-40.8"/>
</g>
<!-- PrismaModule -->
<g id="node1" class="node">
<title>PrismaModule</title>
<polygon fill="#8dd3c7" stroke="black" points="446.43,-84.8 443.43,-88.8 422.43,-88.8 419.43,-84.8 347.57,-84.8 347.57,-48.8 446.43,-48.8 446.43,-84.8"/>
<text text-anchor="middle" x="397" y="-62.6" font-family="Times,serif" font-size="14.00">PrismaModule</text>
</g>
<!-- UsuariosModule -->
<g id="node2" class="node">
<title>UsuariosModule</title>
<polygon fill="#8dd3c7" stroke="black" points="311.81,-149.8 308.81,-153.8 287.81,-153.8 284.81,-149.8 202.19,-149.8 202.19,-113.8 311.81,-113.8 311.81,-149.8"/>
<text text-anchor="middle" x="257" y="-127.6" font-family="Times,serif" font-size="14.00">UsuariosModule</text>
</g>
<!-- PrismaModule&#45;&gt;UsuariosModule -->
<g id="edge1" class="edge">
<title>PrismaModule&#45;&gt;UsuariosModule</title>
<path fill="none" stroke="black" d="M397,-84.91C397,-104.14 397,-131.8 397,-131.8 397,-131.8 321.93,-131.8 321.93,-131.8"/>
<polygon fill="black" stroke="black" points="321.93,-128.3 311.93,-131.8 321.93,-135.3 321.93,-128.3"/>
</g>
<!-- UsuariosService  -->
<g id="node3" class="node">
<title>UsuariosService </title>
<polygon fill="#fb8072" stroke="black" points="312.74,-214.8 201.26,-214.8 201.26,-178.8 312.74,-178.8 312.74,-214.8"/>
<text text-anchor="middle" x="257" y="-192.6" font-family="Times,serif" font-size="14.00">UsuariosService </text>
</g>
<!-- UsuariosModule&#45;&gt;UsuariosService  -->
<g id="edge2" class="edge">
<title>UsuariosModule&#45;&gt;UsuariosService </title>
<path fill="none" stroke="black" stroke-dasharray="5,2" d="M257,-149.91C257,-149.91 257,-168.79 257,-168.79"/>
<polygon fill="black" stroke="black" points="253.5,-168.79 257,-178.79 260.5,-168.79 253.5,-168.79"/>
</g>
<!-- PrismaService -->
<g id="node4" class="node">
<title>PrismaService</title>
<ellipse fill="#fdb462" stroke="black" cx="257" cy="-66.8" rx="66.63" ry="18"/>
<text text-anchor="middle" x="257" y="-62.6" font-family="Times,serif" font-size="14.00">PrismaService</text>
</g>
<!-- PrismaService&#45;&gt;UsuariosModule -->
<g id="edge3" class="edge">
<title>PrismaService&#45;&gt;UsuariosModule</title>
<path fill="none" stroke="black" d="M257,-84.91C257,-84.91 257,-103.79 257,-103.79"/>
<polygon fill="black" stroke="black" points="253.5,-103.79 257,-113.79 260.5,-103.79 253.5,-103.79"/>
</g>
<!-- UsuariosService -->
<g id="node5" class="node">
<title>UsuariosService</title>
<ellipse fill="#fdb462" stroke="black" cx="98" cy="-66.8" rx="74.13" ry="18"/>
<text text-anchor="middle" x="98" y="-62.6" font-family="Times,serif" font-size="14.00">UsuariosService</text>
</g>
<!-- UsuariosService&#45;&gt;UsuariosModule -->
<g id="edge4" class="edge">
<title>UsuariosService&#45;&gt;UsuariosModule</title>
<path fill="none" stroke="black" d="M98,-84.91C98,-104.14 98,-131.8 98,-131.8 98,-131.8 192.28,-131.8 192.28,-131.8"/>
<polygon fill="black" stroke="black" points="192.28,-135.3 202.28,-131.8 192.28,-128.3 192.28,-135.3"/>
</g>
</g>
</svg>
