<?xml version="1.0" encoding="UTF-8" standalone="no"?>
<!DOCTYPE svg PUBLIC "-//W3C//DTD SVG 1.1//EN"
 "http://www.w3.org/Graphics/SVG/1.1/DTD/svg11.dtd">
<!-- Generated by graphviz version 2.47.3 (20210619.1520)
 -->
<!-- Title: dependencies Pages: 1 -->
<svg width="496pt" height="247pt"
 viewBox="0.00 0.00 496.00 246.80" xmlns="http://www.w3.org/2000/svg" xmlns:xlink="http://www.w3.org/1999/xlink">
<g id="graph0" class="graph" transform="scale(1 1) rotate(0) translate(4 242.8)">
<title>dependencies</title>
<polygon fill="white" stroke="transparent" points="-4,4 -4,-242.8 492,-242.8 492,4 -4,4"/>
<text text-anchor="middle" x="244" y="-8.2" font-family="sans-serif" font-size="14.00">dependencies</text>
<g id="clust1" class="cluster">
<title>cluster_SeguidoresModule</title>
<polygon fill="none" stroke="black" stroke-dasharray="1,5" points="8,-32.8 8,-230.8 480,-230.8 480,-32.8 8,-32.8"/>
</g>
<g id="clust6" class="cluster">
<title>cluster_SeguidoresModule_providers</title>
<polygon fill="none" stroke="black" points="138,-40.8 138,-92.8 472,-92.8 472,-40.8 138,-40.8"/>
</g>
<g id="clust4" class="cluster">
<title>cluster_SeguidoresModule_exports</title>
<polygon fill="none" stroke="black" points="159,-170.8 159,-222.8 299,-222.8 299,-170.8 159,-170.8"/>
</g>
<g id="clust3" class="cluster">
<title>cluster_SeguidoresModule_imports</title>
<polygon fill="none" stroke="black" points="16,-40.8 16,-92.8 130,-92.8 130,-40.8 16,-40.8"/>
</g>
<!-- PrismaModule -->
<g id="node1" class="node">
<title>PrismaModule</title>
<polygon fill="#8dd3c7" stroke="black" points="122.43,-84.8 119.43,-88.8 98.43,-88.8 95.43,-84.8 23.57,-84.8 23.57,-48.8 122.43,-48.8 122.43,-84.8"/>
<text text-anchor="middle" x="73" y="-62.6" font-family="Times,serif" font-size="14.00">PrismaModule</text>
</g>
<!-- SeguidoresModule -->
<g id="node2" class="node">
<title>SeguidoresModule</title>
<polygon fill="#8dd3c7" stroke="black" points="289.76,-149.8 286.76,-153.8 265.76,-153.8 262.76,-149.8 168.24,-149.8 168.24,-113.8 289.76,-113.8 289.76,-149.8"/>
<text text-anchor="middle" x="229" y="-127.6" font-family="Times,serif" font-size="14.00">SeguidoresModule</text>
</g>
<!-- PrismaModule&#45;&gt;SeguidoresModule -->
<g id="edge1" class="edge">
<title>PrismaModule&#45;&gt;SeguidoresModule</title>
<path fill="none" stroke="black" d="M73,-84.91C73,-104.14 73,-131.8 73,-131.8 73,-131.8 158.24,-131.8 158.24,-131.8"/>
<polygon fill="black" stroke="black" points="158.24,-135.3 168.24,-131.8 158.24,-128.3 158.24,-135.3"/>
</g>
<!-- SeguidoresService  -->
<g id="node3" class="node">
<title>SeguidoresService </title>
<polygon fill="#fb8072" stroke="black" points="290.69,-214.8 167.31,-214.8 167.31,-178.8 290.69,-178.8 290.69,-214.8"/>
<text text-anchor="middle" x="229" y="-192.6" font-family="Times,serif" font-size="14.00">SeguidoresService </text>
</g>
<!-- SeguidoresModule&#45;&gt;SeguidoresService  -->
<g id="edge2" class="edge">
<title>SeguidoresModule&#45;&gt;SeguidoresService </title>
<path fill="none" stroke="black" stroke-dasharray="5,2" d="M229,-149.91C229,-149.91 229,-168.79 229,-168.79"/>
<polygon fill="black" stroke="black" points="225.5,-168.79 229,-178.79 232.5,-168.79 225.5,-168.79"/>
</g>
<!-- PrismaService -->
<g id="node4" class="node">
<title>PrismaService</title>
<ellipse fill="#fdb462" stroke="black" cx="397" cy="-66.8" rx="66.63" ry="18"/>
<text text-anchor="middle" x="397" y="-62.6" font-family="Times,serif" font-size="14.00">PrismaService</text>
</g>
<!-- PrismaService&#45;&gt;SeguidoresModule -->
<g id="edge3" class="edge">
<title>PrismaService&#45;&gt;SeguidoresModule</title>
<path fill="none" stroke="black" d="M397,-84.91C397,-104.14 397,-131.8 397,-131.8 397,-131.8 300.13,-131.8 300.13,-131.8"/>
<polygon fill="black" stroke="black" points="300.13,-128.3 290.13,-131.8 300.13,-135.3 300.13,-128.3"/>
</g>
<!-- SeguidoresService -->
<g id="node5" class="node">
<title>SeguidoresService</title>
<ellipse fill="#fdb462" stroke="black" cx="229" cy="-66.8" rx="82.8" ry="18"/>
<text text-anchor="middle" x="229" y="-62.6" font-family="Times,serif" font-size="14.00">SeguidoresService</text>
</g>
<!-- SeguidoresService&#45;&gt;SeguidoresModule -->
<g id="edge4" class="edge">
<title>SeguidoresService&#45;&gt;SeguidoresModule</title>
<path fill="none" stroke="black" d="M229,-84.91C229,-84.91 229,-103.79 229,-103.79"/>
<polygon fill="black" stroke="black" points="225.5,-103.79 229,-113.79 232.5,-103.79 225.5,-103.79"/>
</g>
</g>
</svg>
